# xmcd
#
# Track frame offsets:
#	150
#	12975
#	29470
#	42332
#	60991
#	70163
#	90705
#	103463
#	115456
#	130427
#	142417
#	164998
#	188140
#	206436
#	224779
#	238325
#	255265
#	274542
#	294949
#	308250
#
# Disc length: 4375 seconds
#
# Revision: 2
# Processed by: cddbd v1.5.2PL0 Copyright (c) Steve Scherf et al.
# Submitted via: audiograbber 1.83.01
#
DISCID=39111514
DTITLE=Various Artist - Bush Kids To Beach - Rural Aid Appeal Volume 15
DYEAR=2001
DGENRE=Country
TTITLE0=Kasey Chambers - This Flower
TTITLE1=Ross Wilson - Some Of These Blues
TTITLE2=Felicity - In My Dreams
TTITLE3=The Stetsons - No Secrets
TTITLE4=Audrey Auld - Shove It
TTITLE5=Crakajak - I'm Not Sure About Love
TTITLE6=The Feral Swing Katz with Peter Busher - Bottle Baby Boogie
TTITLE7=Red Rivers - Baby Blue Buick
TTITLE8=Tim Wood - Sign Of The Times
TTITLE9=Josh Arnold - Headin' For The Country
TTITLE10=John Wibberley - Oh What A Fool I've Been
TTITLE11=Kevin Bennett and James Gillard - Up Above My Head
TTITLE12=Scooter Lee - Ribbon Of Highway
TTITLE13=Michael Bryers - This Moment
TTITLE14=Fat Man Don't Dance - Hot Tub
TTITLE15=Mental As Anything - $25 More
TTITLE16=Kevin Bennett And The Flood - The Ballad Of The Ballad Of KB
TTITLE17=Brian Cadd - Steppin' Out
TTITLE18=Kylie Sackley - Love's Like A Train
TTITLE19=Graeme Connors - Love Works
EXTD=
EXTT0=
EXTT1=
EXTT2=
EXTT3=
EXTT4=
EXTT5=
EXTT6=
EXTT7=
EXTT8=
EXTT9=
EXTT10=
EXTT11=
EXTT12=
EXTT13=
EXTT14=
EXTT15=
EXTT16=
EXTT17=
EXTT18=
EXTT19=
PLAYORDER=
